<svg width="20" height="21" viewBox="0 0 20 21" fill="none" xmlns="http://www.w3.org/2000/svg">
<path fill-rule="evenodd" clip-rule="evenodd" d="M17.1385 4.30457C17.3987 4.04423 17.3987 3.62212 17.1385 3.36177C16.8781 3.10141 16.4559 3.10141 16.1955 3.36177L10.0003 9.55703L3.80506 3.36177C3.54472 3.10141 3.12261 3.10141 2.86226 3.36177C2.6019 3.62212 2.6019 4.04423 2.86226 4.30457L9.05752 10.4998L2.86226 16.695C2.6019 16.9554 2.6019 17.3776 2.86226 17.638C3.12261 17.8982 3.54472 17.8982 3.80506 17.638L10.0003 11.4427L16.1955 17.638C16.4559 17.8982 16.8781 17.8982 17.1385 17.638C17.3987 17.3776 17.3987 16.9554 17.1385 16.695L10.9431 10.4998L17.1385 4.30457Z" fill="#3F3F46"/>
</svg>
