<svg width="20" height="20" viewBox="0 0 20 20" fill="none" xmlns="http://www.w3.org/2000/svg">
<path fill-rule="evenodd" clip-rule="evenodd" d="M18.1651 2.29199C18.7644 2.29199 19.2966 2.57936 19.6314 3.02384L9.90633 11.1824L0.267855 3.17199C0.59012 2.64425 1.17137 2.29199 1.83486 2.29199H18.1651ZM0 15.8733V4.6197L6.91586 10.3674L0.0142565 16.1032C0.00484922 16.0279 0 15.9512 0 15.8733ZM0.632498 17.2597C0.954517 17.5394 1.37493 17.7087 1.83486 17.7087H18.1651C18.5605 17.7087 18.9266 17.5836 19.2261 17.3709L11.8772 11.2058L10.5557 12.3144C10.1819 12.628 9.63742 12.6292 9.26222 12.3174L7.92076 11.2025L0.632498 17.2597ZM12.8766 10.3674L19.9499 16.3013C19.9826 16.164 20 16.0207 20 15.8733V4.39141L12.8766 10.3674Z" fill="white"/>
</svg>
