<svg width="21" height="20" viewBox="0 0 21 20" fill="none" xmlns="http://www.w3.org/2000/svg">
<g clip-path="url(#clip0_521_1031)">
<path fill-rule="evenodd" clip-rule="evenodd" d="M10.5015 0.168945C5.06056 0.168945 0.662109 4.59982 0.662109 10.0814C0.662109 14.4631 3.48035 18.1722 7.38999 19.4849C7.87879 19.5836 8.05784 19.2716 8.05784 19.0092C8.05784 18.7794 8.04173 17.9917 8.04173 17.171C5.30466 17.7619 4.73469 15.9894 4.73469 15.9894C4.29482 14.8406 3.64308 14.5453 3.64308 14.5453C2.74724 13.9381 3.70833 13.9381 3.70833 13.9381C4.70206 14.0037 5.22349 14.9556 5.22349 14.9556C6.10302 16.4653 7.52029 16.0387 8.09047 15.7761C8.17183 15.136 8.43265 14.6929 8.70958 14.4468C6.52657 14.217 4.22977 13.3637 4.22977 9.55615C4.22977 8.473 4.62049 7.58683 5.2396 6.89763C5.14192 6.65151 4.79974 5.63382 5.33749 4.27173C5.33749 4.27173 6.16827 4.0091 8.04153 5.28922C8.84353 5.07224 9.67063 4.96186 10.5015 4.96093C11.3323 4.96093 12.1792 5.07593 12.9612 5.28922C14.8347 4.0091 15.6654 4.27173 15.6654 4.27173C16.2032 5.63382 15.8608 6.65151 15.7631 6.89763C16.3986 7.58683 16.7732 8.473 16.7732 9.55615C16.7732 13.3637 14.4764 14.2005 12.277 14.4468C12.6355 14.7586 12.9449 15.3493 12.9449 16.2848C12.9449 17.6141 12.9288 18.6809 12.9288 19.009C12.9288 19.2716 13.108 19.5836 13.5966 19.4851C17.5063 18.172 20.3245 14.4631 20.3245 10.0814C20.3406 4.59982 15.9261 0.168945 10.5015 0.168945Z" fill="white"/>
</g>
<defs>
<clipPath id="clip0_521_1031">
<rect width="19.6624" height="19.6624" fill="white" transform="translate(0.662109 0.168945)"/>
</clipPath>
</defs>
</svg>
