<svg width="20" height="20" viewBox="0 0 20 20" fill="none" xmlns="http://www.w3.org/2000/svg">
<g clip-path="url(#clip0_521_1032)">
<path d="M10.1564 1.93933C12.7832 1.93933 13.0943 1.95085 14.1273 1.99694C15.0874 2.03918 15.6058 2.20048 15.9515 2.33489C16.4085 2.51154 16.7387 2.7266 17.0805 3.06839C17.4261 3.41402 17.6374 3.74044 17.814 4.19744C17.9484 4.54307 18.1097 5.06535 18.152 6.02159C18.198 7.05848 18.2096 7.36955 18.2096 9.99249C18.2096 12.6193 18.198 12.9303 18.152 13.9634C18.1097 14.9235 17.9484 15.4419 17.814 15.7875C17.6374 16.2445 17.4223 16.5748 17.0805 16.9166C16.7349 17.2622 16.4085 17.4734 15.9515 17.6501C15.6058 17.7845 15.0835 17.9458 14.1273 17.988C13.0904 18.0341 12.7794 18.0456 10.1564 18.0456C7.52964 18.0456 7.21857 18.0341 6.18552 17.988C5.22544 17.9458 4.707 17.7845 4.36137 17.6501C3.90437 17.4734 3.57411 17.2584 3.23232 16.9166C2.88669 16.571 2.67547 16.2445 2.49882 15.7875C2.36441 15.4419 2.20311 14.9196 2.16087 13.9634C2.11478 12.9265 2.10326 12.6154 2.10326 9.99249C2.10326 7.36571 2.11478 7.05464 2.16087 6.02159C2.20311 5.06151 2.36441 4.54307 2.49882 4.19744C2.67547 3.74044 2.89053 3.41018 3.23232 3.06839C3.57795 2.72276 3.90437 2.51154 4.36137 2.33489C4.707 2.20048 5.22928 2.03918 6.18552 1.99694C7.21857 1.95085 7.52964 1.93933 10.1564 1.93933ZM10.1564 0.168945C7.48739 0.168945 7.15329 0.180466 6.10488 0.22655C5.06031 0.272634 4.34217 0.441608 3.72004 0.683548C3.07102 0.93701 2.52186 1.27112 1.97653 1.82028C1.42737 2.36561 1.09326 2.91478 0.839798 3.55995C0.597858 4.18592 0.428884 4.90022 0.3828 5.94479C0.336716 6.99704 0.325195 7.33114 0.325195 10.0002C0.325195 12.6692 0.336716 13.0033 0.3828 14.0517C0.428884 15.0963 0.597858 15.8144 0.839798 16.4365C1.09326 17.0856 1.42737 17.6347 1.97653 18.1801C2.52186 18.7254 3.07102 19.0633 3.7162 19.3129C4.34217 19.5549 5.05647 19.7239 6.10104 19.7699C7.14944 19.816 7.48355 19.8275 10.1526 19.8275C12.8216 19.8275 13.1557 19.816 14.2041 19.7699C15.2487 19.7239 15.9668 19.5549 16.589 19.3129C17.2341 19.0633 17.7833 18.7254 18.3286 18.1801C18.8739 17.6347 19.2119 17.0856 19.4615 16.4404C19.7035 15.8144 19.8724 15.1001 19.9185 14.0555C19.9646 13.0071 19.9761 12.673 19.9761 10.004C19.9761 7.33499 19.9646 7.00088 19.9185 5.95247C19.8724 4.9079 19.7035 4.18976 19.4615 3.56763C19.2196 2.91477 18.8855 2.36561 18.3363 1.82028C17.791 1.27496 17.2418 0.93701 16.5966 0.687389C15.9707 0.445448 15.2564 0.276474 14.2118 0.23039C13.1595 0.180466 12.8254 0.168945 10.1564 0.168945Z" fill="white"/>
<path d="M10.1555 4.9502C7.36742 4.9502 5.10547 7.21214 5.10547 10.0002C5.10547 12.7883 7.36742 15.0502 10.1555 15.0502C12.9436 15.0502 15.2055 12.7883 15.2055 10.0002C15.2055 7.21214 12.9436 4.9502 10.1555 4.9502ZM10.1555 13.276C8.3467 13.276 6.8797 11.809 6.8797 10.0002C6.8797 8.19143 8.3467 6.72442 10.1555 6.72442C11.9643 6.72442 13.4313 8.19143 13.4313 10.0002C13.4313 11.809 11.9643 13.276 10.1555 13.276Z" fill="white"/>
<path d="M16.5845 4.75076C16.5845 5.40361 16.0546 5.92974 15.4055 5.92974C14.7527 5.92974 14.2266 5.39977 14.2266 4.75076C14.2266 4.0979 14.7565 3.57178 15.4055 3.57178C16.0546 3.57178 16.5845 4.10174 16.5845 4.75076Z" fill="white"/>
</g>
<defs>
<clipPath id="clip0_521_1032">
<rect width="19.6624" height="19.6624" fill="white" transform="translate(0.325195 0.168945)"/>
</clipPath>
</defs>
</svg>
