<svg width="20" height="20" viewBox="0 0 20 20" fill="none" xmlns="http://www.w3.org/2000/svg">
<g clip-path="url(#clip0_521_1030)">
<path d="M18.207 0.168945H1.45164C0.649014 0.168945 0 0.802598 0 1.58602V18.4105C0 19.1939 0.649014 19.8314 1.45164 19.8314H18.207C19.0096 19.8314 19.6624 19.1939 19.6624 18.4143V1.58602C19.6624 0.802598 19.0096 0.168945 18.207 0.168945ZM5.83345 16.9243H2.9148V7.53852H5.83345V16.9243ZM4.37413 6.25969C3.43709 6.25969 2.68054 5.50315 2.68054 4.56995C2.68054 3.63676 3.43709 2.88021 4.37413 2.88021C5.30732 2.88021 6.06387 3.63676 6.06387 4.56995C6.06387 5.49931 5.30732 6.25969 4.37413 6.25969ZM16.7553 16.9243H13.8405V12.362C13.8405 11.2752 13.8213 9.87344 12.3236 9.87344C10.8067 9.87344 10.5762 11.0601 10.5762 12.2852V16.9243H7.66528V7.53852H10.461V8.82119H10.4994C10.8873 8.08385 11.8397 7.30426 13.2568 7.30426C16.21 7.30426 16.7553 9.24747 16.7553 11.7744V16.9243V16.9243Z" fill="white"/>
</g>
<defs>
<clipPath id="clip0_521_1030">
<rect width="19.6624" height="19.6624" fill="white" transform="translate(0 0.168945)"/>
</clipPath>
</defs>
</svg>
