<svg width="30" height="24" viewBox="0 0 30 24" fill="none" xmlns="http://www.w3.org/2000/svg">
<path d="M23.0703 17.947L29.0703 11.9469L23.0915 5.97878L17.1234 0V1.48673V2.97346L21.6048 7.45489L26.0969 11.9469L21.5517 16.4921L17.0066 21.0372L17.0384 22.4921L17.0703 23.947L23.0703 17.947Z" fill="white"/>
<path d="M12.9824 22.5133V21.0266L8.44789 16.4921L3.90275 11.9469L8.3948 7.45489L12.8762 2.97346V1.48673V0L6.90807 5.97878L0.929287 11.9469L6.96116 17.9682L12.9824 24.0001V22.5133Z" fill="white"/>
<path d="M18.8229 15.7165L22.5928 11.9466L18.8229 8.17666L15.0529 4.40674L11.2618 8.1979L7.45998 11.9997L11.198 15.7377C13.2582 17.7979 14.968 19.4864 14.9998 19.4864C15.0317 19.4864 16.752 17.7873 18.8229 15.7165ZM13.5662 14.782C12.9396 14.4634 12.4618 13.9855 12.1219 13.3271C11.9096 12.9342 11.8671 12.69 11.8671 11.9466C11.8671 11.1714 11.9096 10.9696 12.1538 10.513C12.483 9.87578 12.9715 9.40852 13.6193 9.0687C14.3096 8.70764 15.6901 8.70764 16.3804 9.0687C17.0282 9.40852 17.5167 9.87578 17.8459 10.513C18.0901 10.9696 18.1326 11.182 18.1326 11.9466C18.1326 12.69 18.0901 12.9342 17.8883 13.3271C17.4529 14.1554 16.7627 14.7395 15.8494 15.0369C15.329 15.2068 14.129 15.0793 13.5662 14.782Z" fill="white"/>
</svg>
