<svg width="28" height="242" viewBox="0 0 28 242" fill="none" xmlns="http://www.w3.org/2000/svg">
<path d="M26 0H28V242H26V0Z" fill="#D9D9D9"/>
<path d="M14 240H28V242H14V240Z" fill="#D9D9D9"/>
<path d="M14 219H28V221H14V219Z" fill="#D9D9D9"/>
<path d="M14 176H28V178H14V176Z" fill="#D9D9D9"/>
<path d="M14 155H28V157H14V155Z" fill="#D9D9D9"/>
<path d="M4 197H28V200H4V197Z" fill="#D9D9D9"/>
<path d="M14 85H28V87H14V85Z" fill="#D9D9D9"/>
<path d="M14 64H28V66H14V64Z" fill="#D9D9D9"/>
<path d="M14 21H28V23H14V21Z" fill="#D9D9D9"/>
<path d="M14 0H28V2H14V0Z" fill="#D9D9D9"/>
<path d="M4 42H28V45H4V42Z" fill="#D9D9D9"/>
<path d="M0 120.5L28 99V142L0 120.5Z" fill="#D9D9D9"/>
</svg>
