<svg width="20" height="20" viewBox="0 0 20 20" fill="none" xmlns="http://www.w3.org/2000/svg">
<g clip-path="url(#clip0_523_1047)">
<path fill-rule="evenodd" clip-rule="evenodd" d="M1.60442 1.39099C1.34007 1.27349 1.03011 1.3399 0.837095 1.55538C0.644076 1.77086 0.612051 2.08623 0.757814 2.33611L5.22853 10.0002L0.757814 17.6643C0.612051 17.9142 0.644076 18.2295 0.837095 18.445C1.03011 18.6604 1.34007 18.7268 1.60442 18.6094L19.6045 10.6094C19.8451 10.5024 20.0003 10.2636 20.0003 10.0002C20.0003 9.73672 19.8451 9.49798 19.6045 9.39098L1.60442 1.39099ZM6.46102 9.46686L2.95011 3.44816L17.6922 10.0002L2.95011 16.5522L6.46102 10.5335H12.0003C12.2949 10.5335 12.5337 10.2947 12.5337 10.0002C12.5337 9.70564 12.2949 9.46686 12.0003 9.46686H6.46102Z" fill="white"/>
</g>
<defs>
<clipPath id="clip0_523_1047">
<rect width="20" height="20" fill="white"/>
</clipPath>
</defs>
</svg>
