<svg width="108" height="106" viewBox="0 0 108 106" fill="none" xmlns="http://www.w3.org/2000/svg">
<g filter="url(#filter0_d_3_2)">
<rect x="4" width="100" height="98" rx="10" fill="#E3E3E3"/>
<rect x="4.5" y="0.5" width="99" height="97" rx="9.5" stroke="black"/>
</g>
<mask id="path-3-outside-1_3_2" maskUnits="userSpaceOnUse" x="13" y="11" width="84" height="77" fill="black">
<rect fill="white" x="13" y="11" width="84" height="77"/>
<path d="M14.2381 80.7619H20.4762V87H14.2381V80.7619ZM20.4762 74.5238H26.7143V80.7619H20.4762V74.5238ZM26.7143 68.2857H32.9524V74.5238H26.7143V68.2857ZM32.9524 62.0476H39.1905V68.2857H32.9524V62.0476ZM32.9524 55.8095H39.1905V62.0476H32.9524V55.8095ZM26.7143 74.5238H32.9524V80.7619H26.7143V74.5238ZM32.9524 74.5238H39.1905V80.7619H32.9524V74.5238ZM39.1905 74.5238H45.4286V80.7619H39.1905V74.5238ZM45.4286 74.5238H51.6667V80.7619H45.4286V74.5238ZM51.6667 68.2857H57.9048V74.5238H51.6667V68.2857ZM39.1905 80.7619H45.4286V87H39.1905V80.7619ZM32.9524 80.7619H39.1905V87H32.9524V80.7619ZM45.4286 55.8095H51.6667V62.0476H45.4286V55.8095ZM51.6667 55.8095H57.9048V62.0476H51.6667V55.8095ZM64.1429 55.8095H70.381V62.0476H64.1429V55.8095ZM70.381 55.8095H76.6191V62.0476H70.381V55.8095ZM70.381 62.0476H76.6191V68.2857H70.381V62.0476ZM70.381 68.2857H76.6191V74.5238H70.381V68.2857ZM70.381 74.5238H76.6191V80.7619H70.381V74.5238ZM64.1429 74.5238H70.381V80.7619H64.1429V74.5238ZM64.1429 68.2857H70.381V74.5238H64.1429V68.2857ZM64.1429 62.0476H70.381V68.2857H64.1429V62.0476ZM76.6191 74.5238H82.8571V80.7619H76.6191V74.5238ZM82.8571 74.5238H89.0952V80.7619H82.8571V74.5238ZM89.0952 68.2857H95.3333V74.5238H89.0952V68.2857ZM76.6191 80.7619H82.8571V87H76.6191V80.7619ZM70.381 80.7619H76.6191V87H70.381V80.7619ZM64.1429 49.5714H70.381V55.8095H64.1429V49.5714ZM57.9048 49.5714H64.1429V55.8095H57.9048V49.5714ZM57.9048 43.3333H64.1429V49.5714H57.9048V43.3333ZM57.9048 37.0952H64.1429V43.3333H57.9048V37.0952ZM64.1429 37.0952H70.381V43.3333H64.1429V37.0952ZM64.1429 43.3333H70.381V49.5714H64.1429V43.3333ZM64.1429 30.8571H70.381V37.0952H64.1429V30.8571ZM57.9048 30.8571H64.1429V37.0952H57.9048V30.8571ZM57.9048 24.619H64.1429V30.8571H57.9048V24.619ZM64.1429 24.619H70.381V30.8571H64.1429V24.619ZM70.381 12.1429H76.6191V18.3809H70.381V12.1429ZM76.6191 12.1429H82.8571V18.3809H76.6191V12.1429ZM82.8571 18.3809H89.0952V24.619H82.8571V18.3809ZM64.1429 18.3809H70.381V24.619H64.1429V18.3809ZM57.9048 18.3809H64.1429V24.619H57.9048V18.3809ZM51.6667 12.1429H57.9048V18.3809H51.6667V12.1429ZM45.4286 12.1429H51.6667V18.3809H45.4286V12.1429ZM39.1905 12.1429H45.4286V18.3809H39.1905V12.1429ZM32.9524 12.1429H39.1905V18.3809H32.9524V12.1429ZM26.7143 12.1429H32.9524V18.3809H26.7143V12.1429ZM20.4762 18.3809H26.7143V24.619H20.4762V18.3809ZM14.2381 24.619H20.4762V30.8571H14.2381V24.619ZM39.1905 18.3809H45.4286V24.619H39.1905V18.3809ZM45.4286 18.3809H51.6667V24.619H45.4286V18.3809ZM51.6667 18.3809H57.9048V24.619H51.6667V18.3809ZM51.6667 24.619H57.9048V30.8571H51.6667V24.619ZM45.4286 30.8571H51.6667V37.0952H45.4286V30.8571ZM45.4286 37.0952H51.6667V43.3333H45.4286V37.0952ZM39.1905 37.0952H45.4286V43.3333H39.1905V37.0952ZM39.1905 30.8571H45.4286V37.0952H39.1905V30.8571ZM32.9524 30.8571H39.1905V37.0952H32.9524V30.8571ZM26.7143 37.0952H32.9524V43.3333H26.7143V37.0952ZM39.1905 43.3333H45.4286V49.5714H39.1905V43.3333ZM39.1905 49.5714H45.4286V55.8095H39.1905V49.5714Z"/>
</mask>
<path d="M14.2381 80.7619H20.4762V87H14.2381V80.7619ZM20.4762 74.5238H26.7143V80.7619H20.4762V74.5238ZM26.7143 68.2857H32.9524V74.5238H26.7143V68.2857ZM32.9524 62.0476H39.1905V68.2857H32.9524V62.0476ZM32.9524 55.8095H39.1905V62.0476H32.9524V55.8095ZM26.7143 74.5238H32.9524V80.7619H26.7143V74.5238ZM32.9524 74.5238H39.1905V80.7619H32.9524V74.5238ZM39.1905 74.5238H45.4286V80.7619H39.1905V74.5238ZM45.4286 74.5238H51.6667V80.7619H45.4286V74.5238ZM51.6667 68.2857H57.9048V74.5238H51.6667V68.2857ZM39.1905 80.7619H45.4286V87H39.1905V80.7619ZM32.9524 80.7619H39.1905V87H32.9524V80.7619ZM45.4286 55.8095H51.6667V62.0476H45.4286V55.8095ZM51.6667 55.8095H57.9048V62.0476H51.6667V55.8095ZM64.1429 55.8095H70.381V62.0476H64.1429V55.8095ZM70.381 55.8095H76.6191V62.0476H70.381V55.8095ZM70.381 62.0476H76.6191V68.2857H70.381V62.0476ZM70.381 68.2857H76.6191V74.5238H70.381V68.2857ZM70.381 74.5238H76.6191V80.7619H70.381V74.5238ZM64.1429 74.5238H70.381V80.7619H64.1429V74.5238ZM64.1429 68.2857H70.381V74.5238H64.1429V68.2857ZM64.1429 62.0476H70.381V68.2857H64.1429V62.0476ZM76.6191 74.5238H82.8571V80.7619H76.6191V74.5238ZM82.8571 74.5238H89.0952V80.7619H82.8571V74.5238ZM89.0952 68.2857H95.3333V74.5238H89.0952V68.2857ZM76.6191 80.7619H82.8571V87H76.6191V80.7619ZM70.381 80.7619H76.6191V87H70.381V80.7619ZM64.1429 49.5714H70.381V55.8095H64.1429V49.5714ZM57.9048 49.5714H64.1429V55.8095H57.9048V49.5714ZM57.9048 43.3333H64.1429V49.5714H57.9048V43.3333ZM57.9048 37.0952H64.1429V43.3333H57.9048V37.0952ZM64.1429 37.0952H70.381V43.3333H64.1429V37.0952ZM64.1429 43.3333H70.381V49.5714H64.1429V43.3333ZM64.1429 30.8571H70.381V37.0952H64.1429V30.8571ZM57.9048 30.8571H64.1429V37.0952H57.9048V30.8571ZM57.9048 24.619H64.1429V30.8571H57.9048V24.619ZM64.1429 24.619H70.381V30.8571H64.1429V24.619ZM70.381 12.1429H76.6191V18.3809H70.381V12.1429ZM76.6191 12.1429H82.8571V18.3809H76.6191V12.1429ZM82.8571 18.3809H89.0952V24.619H82.8571V18.3809ZM64.1429 18.3809H70.381V24.619H64.1429V18.3809ZM57.9048 18.3809H64.1429V24.619H57.9048V18.3809ZM51.6667 12.1429H57.9048V18.3809H51.6667V12.1429ZM45.4286 12.1429H51.6667V18.3809H45.4286V12.1429ZM39.1905 12.1429H45.4286V18.3809H39.1905V12.1429ZM32.9524 12.1429H39.1905V18.3809H32.9524V12.1429ZM26.7143 12.1429H32.9524V18.3809H26.7143V12.1429ZM20.4762 18.3809H26.7143V24.619H20.4762V18.3809ZM14.2381 24.619H20.4762V30.8571H14.2381V24.619ZM39.1905 18.3809H45.4286V24.619H39.1905V18.3809ZM45.4286 18.3809H51.6667V24.619H45.4286V18.3809ZM51.6667 18.3809H57.9048V24.619H51.6667V18.3809ZM51.6667 24.619H57.9048V30.8571H51.6667V24.619ZM45.4286 30.8571H51.6667V37.0952H45.4286V30.8571ZM45.4286 37.0952H51.6667V43.3333H45.4286V37.0952ZM39.1905 37.0952H45.4286V43.3333H39.1905V37.0952ZM39.1905 30.8571H45.4286V37.0952H39.1905V30.8571ZM32.9524 30.8571H39.1905V37.0952H32.9524V30.8571ZM26.7143 37.0952H32.9524V43.3333H26.7143V37.0952ZM39.1905 43.3333H45.4286V49.5714H39.1905V43.3333ZM39.1905 49.5714H45.4286V55.8095H39.1905V49.5714Z" fill="#1F1F1F"/>
<path d="M14.2381 80.7619V79.7619H13.2381V80.7619H14.2381ZM20.4762 80.7619H21.4762V79.7619H20.4762V80.7619ZM20.4762 87V88H21.4762V87H20.4762ZM14.2381 87H13.2381V88H14.2381V87ZM20.4762 74.5238V73.5238H19.4762V74.5238H20.4762ZM26.7143 74.5238H27.7143V73.5238H26.7143V74.5238ZM26.7143 80.7619V81.7619H27.7143V80.7619H26.7143ZM20.4762 80.7619H19.4762V81.7619H20.4762V80.7619ZM26.7143 68.2857V67.2857H25.7143V68.2857H26.7143ZM32.9524 68.2857H33.9524V67.2857H32.9524V68.2857ZM32.9524 74.5238V75.5238H33.9524V74.5238H32.9524ZM26.7143 74.5238H25.7143V75.5238H26.7143V74.5238ZM32.9524 62.0476V61.0476H31.9524V62.0476H32.9524ZM39.1905 62.0476H40.1905V61.0476H39.1905V62.0476ZM39.1905 68.2857V69.2857H40.1905V68.2857H39.1905ZM32.9524 68.2857H31.9524V69.2857H32.9524V68.2857ZM32.9524 55.8095V54.8095H31.9524V55.8095H32.9524ZM39.1905 55.8095H40.1905V54.8095H39.1905V55.8095ZM39.1905 62.0476V63.0476H40.1905V62.0476H39.1905ZM32.9524 62.0476H31.9524V63.0476H32.9524V62.0476ZM26.7143 74.5238V73.5238H25.7143V74.5238H26.7143ZM32.9524 74.5238H33.9524V73.5238H32.9524V74.5238ZM32.9524 80.7619V81.7619H33.9524V80.7619H32.9524ZM26.7143 80.7619H25.7143V81.7619H26.7143V80.7619ZM32.9524 74.5238V73.5238H31.9524V74.5238H32.9524ZM39.1905 74.5238H40.1905V73.5238H39.1905V74.5238ZM39.1905 80.7619V81.7619H40.1905V80.7619H39.1905ZM32.9524 80.7619H31.9524V81.7619H32.9524V80.7619ZM39.1905 74.5238V73.5238H38.1905V74.5238H39.1905ZM45.4286 74.5238H46.4286V73.5238H45.4286V74.5238ZM45.4286 80.7619V81.7619H46.4286V80.7619H45.4286ZM39.1905 80.7619H38.1905V81.7619H39.1905V80.7619ZM45.4286 74.5238V73.5238H44.4286V74.5238H45.4286ZM51.6667 74.5238H52.6667V73.5238H51.6667V74.5238ZM51.6667 80.7619V81.7619H52.6667V80.7619H51.6667ZM45.4286 80.7619H44.4286V81.7619H45.4286V80.7619ZM51.6667 68.2857V67.2857H50.6667V68.2857H51.6667ZM57.9048 68.2857H58.9048V67.2857H57.9048V68.2857ZM57.9048 74.5238V75.5238H58.9048V74.5238H57.9048ZM51.6667 74.5238H50.6667V75.5238H51.6667V74.5238ZM39.1905 80.7619V79.7619H38.1905V80.7619H39.1905ZM45.4286 80.7619H46.4286V79.7619H45.4286V80.7619ZM45.4286 87V88H46.4286V87H45.4286ZM39.1905 87H38.1905V88H39.1905V87ZM32.9524 80.7619V79.7619H31.9524V80.7619H32.9524ZM39.1905 80.7619H40.1905V79.7619H39.1905V80.7619ZM39.1905 87V88H40.1905V87H39.1905ZM32.9524 87H31.9524V88H32.9524V87ZM45.4286 55.8095V54.8095H44.4286V55.8095H45.4286ZM51.6667 55.8095H52.6667V54.8095H51.6667V55.8095ZM51.6667 62.0476V63.0476H52.6667V62.0476H51.6667ZM45.4286 62.0476H44.4286V63.0476H45.4286V62.0476ZM51.6667 55.8095V54.8095H50.6667V55.8095H51.6667ZM57.9048 55.8095H58.9048V54.8095H57.9048V55.8095ZM57.9048 62.0476V63.0476H58.9048V62.0476H57.9048ZM51.6667 62.0476H50.6667V63.0476H51.6667V62.0476ZM64.1429 55.8095V54.8095H63.1429V55.8095H64.1429ZM70.381 55.8095H71.381V54.8095H70.381V55.8095ZM70.381 62.0476V63.0476H71.381V62.0476H70.381ZM64.1429 62.0476H63.1429V63.0476H64.1429V62.0476ZM70.381 55.8095V54.8095H69.381V55.8095H70.381ZM76.6191 55.8095H77.6191V54.8095H76.6191V55.8095ZM76.6191 62.0476V63.0476H77.6191V62.0476H76.6191ZM70.381 62.0476H69.381V63.0476H70.381V62.0476ZM70.381 62.0476V61.0476H69.381V62.0476H70.381ZM76.6191 62.0476H77.6191V61.0476H76.6191V62.0476ZM76.6191 68.2857V69.2857H77.6191V68.2857H76.6191ZM70.381 68.2857H69.381V69.2857H70.381V68.2857ZM70.381 68.2857V67.2857H69.381V68.2857H70.381ZM76.6191 68.2857H77.6191V67.2857H76.6191V68.2857ZM76.6191 74.5238V75.5238H77.6191V74.5238H76.6191ZM70.381 74.5238H69.381V75.5238H70.381V74.5238ZM70.381 74.5238V73.5238H69.381V74.5238H70.381ZM76.6191 74.5238H77.6191V73.5238H76.6191V74.5238ZM76.6191 80.7619V81.7619H77.6191V80.7619H76.6191ZM70.381 80.7619H69.381V81.7619H70.381V80.7619ZM64.1429 74.5238V73.5238H63.1429V74.5238H64.1429ZM70.381 74.5238H71.381V73.5238H70.381V74.5238ZM70.381 80.7619V81.7619H71.381V80.7619H70.381ZM64.1429 80.7619H63.1429V81.7619H64.1429V80.7619ZM64.1429 68.2857V67.2857H63.1429V68.2857H64.1429ZM70.381 68.2857H71.381V67.2857H70.381V68.2857ZM70.381 74.5238V75.5238H71.381V74.5238H70.381ZM64.1429 74.5238H63.1429V75.5238H64.1429V74.5238ZM64.1429 62.0476V61.0476H63.1429V62.0476H64.1429ZM70.381 62.0476H71.381V61.0476H70.381V62.0476ZM70.381 68.2857V69.2857H71.381V68.2857H70.381ZM64.1429 68.2857H63.1429V69.2857H64.1429V68.2857ZM76.6191 74.5238V73.5238H75.6191V74.5238H76.6191ZM82.8571 74.5238H83.8571V73.5238H82.8571V74.5238ZM82.8571 80.7619V81.7619H83.8571V80.7619H82.8571ZM76.6191 80.7619H75.6191V81.7619H76.6191V80.7619ZM82.8571 74.5238V73.5238H81.8571V74.5238H82.8571ZM89.0952 74.5238H90.0952V73.5238H89.0952V74.5238ZM89.0952 80.7619V81.7619H90.0952V80.7619H89.0952ZM82.8571 80.7619H81.8571V81.7619H82.8571V80.7619ZM89.0952 68.2857V67.2857H88.0952V68.2857H89.0952ZM95.3333 68.2857H96.3333V67.2857H95.3333V68.2857ZM95.3333 74.5238V75.5238H96.3333V74.5238H95.3333ZM89.0952 74.5238H88.0952V75.5238H89.0952V74.5238ZM76.6191 80.7619V79.7619H75.6191V80.7619H76.6191ZM82.8571 80.7619H83.8571V79.7619H82.8571V80.7619ZM82.8571 87V88H83.8571V87H82.8571ZM76.6191 87H75.6191V88H76.6191V87ZM70.381 80.7619V79.7619H69.381V80.7619H70.381ZM76.6191 80.7619H77.6191V79.7619H76.6191V80.7619ZM76.6191 87V88H77.6191V87H76.6191ZM70.381 87H69.381V88H70.381V87ZM64.1429 49.5714V48.5714H63.1429V49.5714H64.1429ZM70.381 49.5714H71.381V48.5714H70.381V49.5714ZM70.381 55.8095V56.8095H71.381V55.8095H70.381ZM64.1429 55.8095H63.1429V56.8095H64.1429V55.8095ZM57.9048 49.5714V48.5714H56.9048V49.5714H57.9048ZM64.1429 49.5714H65.1429V48.5714H64.1429V49.5714ZM64.1429 55.8095V56.8095H65.1429V55.8095H64.1429ZM57.9048 55.8095H56.9048V56.8095H57.9048V55.8095ZM57.9048 43.3333V42.3333H56.9048V43.3333H57.9048ZM64.1429 43.3333H65.1429V42.3333H64.1429V43.3333ZM64.1429 49.5714V50.5714H65.1429V49.5714H64.1429ZM57.9048 49.5714H56.9048V50.5714H57.9048V49.5714ZM57.9048 37.0952V36.0952H56.9048V37.0952H57.9048ZM64.1429 37.0952H65.1429V36.0952H64.1429V37.0952ZM64.1429 43.3333V44.3333H65.1429V43.3333H64.1429ZM57.9048 43.3333H56.9048V44.3333H57.9048V43.3333ZM64.1429 37.0952V36.0952H63.1429V37.0952H64.1429ZM70.381 37.0952H71.381V36.0952H70.381V37.0952ZM70.381 43.3333V44.3333H71.381V43.3333H70.381ZM64.1429 43.3333H63.1429V44.3333H64.1429V43.3333ZM64.1429 43.3333V42.3333H63.1429V43.3333H64.1429ZM70.381 43.3333H71.381V42.3333H70.381V43.3333ZM70.381 49.5714V50.5714H71.381V49.5714H70.381ZM64.1429 49.5714H63.1429V50.5714H64.1429V49.5714ZM64.1429 30.8571V29.8571H63.1429V30.8571H64.1429ZM70.381 30.8571H71.381V29.8571H70.381V30.8571ZM70.381 37.0952V38.0952H71.381V37.0952H70.381ZM64.1429 37.0952H63.1429V38.0952H64.1429V37.0952ZM57.9048 30.8571V29.8571H56.9048V30.8571H57.9048ZM64.1429 30.8571H65.1429V29.8571H64.1429V30.8571ZM64.1429 37.0952V38.0952H65.1429V37.0952H64.1429ZM57.9048 37.0952H56.9048V38.0952H57.9048V37.0952ZM57.9048 24.619V23.619H56.9048V24.619H57.9048ZM64.1429 24.619H65.1429V23.619H64.1429V24.619ZM64.1429 30.8571V31.8571H65.1429V30.8571H64.1429ZM57.9048 30.8571H56.9048V31.8571H57.9048V30.8571ZM64.1429 24.619V23.619H63.1429V24.619H64.1429ZM70.381 24.619H71.381V23.619H70.381V24.619ZM70.381 30.8571V31.8571H71.381V30.8571H70.381ZM64.1429 30.8571H63.1429V31.8571H64.1429V30.8571ZM70.381 12.1429V11.1429H69.381V12.1429H70.381ZM76.6191 12.1429H77.6191V11.1429H76.6191V12.1429ZM76.6191 18.3809V19.3809H77.6191V18.3809H76.6191ZM70.381 18.3809H69.381V19.3809H70.381V18.3809ZM76.6191 12.1429V11.1429H75.6191V12.1429H76.6191ZM82.8571 12.1429H83.8571V11.1429H82.8571V12.1429ZM82.8571 18.3809V19.3809H83.8571V18.3809H82.8571ZM76.6191 18.3809H75.6191V19.3809H76.6191V18.3809ZM82.8571 18.3809V17.3809H81.8571V18.3809H82.8571ZM89.0952 18.3809H90.0952V17.3809H89.0952V18.3809ZM89.0952 24.619V25.619H90.0952V24.619H89.0952ZM82.8571 24.619H81.8571V25.619H82.8571V24.619ZM64.1429 18.3809V17.3809H63.1429V18.3809H64.1429ZM70.381 18.3809H71.381V17.3809H70.381V18.3809ZM70.381 24.619V25.619H71.381V24.619H70.381ZM64.1429 24.619H63.1429V25.619H64.1429V24.619ZM57.9048 18.3809V17.3809H56.9048V18.3809H57.9048ZM64.1429 18.3809H65.1429V17.3809H64.1429V18.3809ZM64.1429 24.619V25.619H65.1429V24.619H64.1429ZM57.9048 24.619H56.9048V25.619H57.9048V24.619ZM51.6667 12.1429V11.1429H50.6667V12.1429H51.6667ZM57.9048 12.1429H58.9048V11.1429H57.9048V12.1429ZM57.9048 18.3809V19.3809H58.9048V18.3809H57.9048ZM51.6667 18.3809H50.6667V19.3809H51.6667V18.3809ZM45.4286 12.1429V11.1429H44.4286V12.1429H45.4286ZM51.6667 12.1429H52.6667V11.1429H51.6667V12.1429ZM51.6667 18.3809V19.3809H52.6667V18.3809H51.6667ZM45.4286 18.3809H44.4286V19.3809H45.4286V18.3809ZM39.1905 12.1429V11.1429H38.1905V12.1429H39.1905ZM45.4286 12.1429H46.4286V11.1429H45.4286V12.1429ZM45.4286 18.3809V19.3809H46.4286V18.3809H45.4286ZM39.1905 18.3809H38.1905V19.3809H39.1905V18.3809ZM32.9524 12.1429V11.1429H31.9524V12.1429H32.9524ZM39.1905 12.1429H40.1905V11.1429H39.1905V12.1429ZM39.1905 18.3809V19.3809H40.1905V18.3809H39.1905ZM32.9524 18.3809H31.9524V19.3809H32.9524V18.3809ZM26.7143 12.1429V11.1429H25.7143V12.1429H26.7143ZM32.9524 12.1429H33.9524V11.1429H32.9524V12.1429ZM32.9524 18.3809V19.3809H33.9524V18.3809H32.9524ZM26.7143 18.3809H25.7143V19.3809H26.7143V18.3809ZM20.4762 18.3809V17.3809H19.4762V18.3809H20.4762ZM26.7143 18.3809H27.7143V17.3809H26.7143V18.3809ZM26.7143 24.619V25.619H27.7143V24.619H26.7143ZM20.4762 24.619H19.4762V25.619H20.4762V24.619ZM14.2381 24.619V23.619H13.2381V24.619H14.2381ZM20.4762 24.619H21.4762V23.619H20.4762V24.619ZM20.4762 30.8571V31.8571H21.4762V30.8571H20.4762ZM14.2381 30.8571H13.2381V31.8571H14.2381V30.8571ZM39.1905 18.3809V17.3809H38.1905V18.3809H39.1905ZM45.4286 18.3809H46.4286V17.3809H45.4286V18.3809ZM45.4286 24.619V25.619H46.4286V24.619H45.4286ZM39.1905 24.619H38.1905V25.619H39.1905V24.619ZM45.4286 18.3809V17.3809H44.4286V18.3809H45.4286ZM51.6667 18.3809H52.6667V17.3809H51.6667V18.3809ZM51.6667 24.619V25.619H52.6667V24.619H51.6667ZM45.4286 24.619H44.4286V25.619H45.4286V24.619ZM51.6667 18.3809V17.3809H50.6667V18.3809H51.6667ZM57.9048 18.3809H58.9048V17.3809H57.9048V18.3809ZM57.9048 24.619V25.619H58.9048V24.619H57.9048ZM51.6667 24.619H50.6667V25.619H51.6667V24.619ZM51.6667 24.619V23.619H50.6667V24.619H51.6667ZM57.9048 24.619H58.9048V23.619H57.9048V24.619ZM57.9048 30.8571V31.8571H58.9048V30.8571H57.9048ZM51.6667 30.8571H50.6667V31.8571H51.6667V30.8571ZM45.4286 30.8571V29.8571H44.4286V30.8571H45.4286ZM51.6667 30.8571H52.6667V29.8571H51.6667V30.8571ZM51.6667 37.0952V38.0952H52.6667V37.0952H51.6667ZM45.4286 37.0952H44.4286V38.0952H45.4286V37.0952ZM45.4286 37.0952V36.0952H44.4286V37.0952H45.4286ZM51.6667 37.0952H52.6667V36.0952H51.6667V37.0952ZM51.6667 43.3333V44.3333H52.6667V43.3333H51.6667ZM45.4286 43.3333H44.4286V44.3333H45.4286V43.3333ZM39.1905 37.0952V36.0952H38.1905V37.0952H39.1905ZM45.4286 37.0952H46.4286V36.0952H45.4286V37.0952ZM45.4286 43.3333V44.3333H46.4286V43.3333H45.4286ZM39.1905 43.3333H38.1905V44.3333H39.1905V43.3333ZM39.1905 30.8571V29.8571H38.1905V30.8571H39.1905ZM45.4286 30.8571H46.4286V29.8571H45.4286V30.8571ZM45.4286 37.0952V38.0952H46.4286V37.0952H45.4286ZM39.1905 37.0952H38.1905V38.0952H39.1905V37.0952ZM32.9524 30.8571V29.8571H31.9524V30.8571H32.9524ZM39.1905 30.8571H40.1905V29.8571H39.1905V30.8571ZM39.1905 37.0952V38.0952H40.1905V37.0952H39.1905ZM32.9524 37.0952H31.9524V38.0952H32.9524V37.0952ZM26.7143 37.0952V36.0952H25.7143V37.0952H26.7143ZM32.9524 37.0952H33.9524V36.0952H32.9524V37.0952ZM32.9524 43.3333V44.3333H33.9524V43.3333H32.9524ZM26.7143 43.3333H25.7143V44.3333H26.7143V43.3333ZM39.1905 43.3333V42.3333H38.1905V43.3333H39.1905ZM45.4286 43.3333H46.4286V42.3333H45.4286V43.3333ZM45.4286 49.5714V50.5714H46.4286V49.5714H45.4286ZM39.1905 49.5714H38.1905V50.5714H39.1905V49.5714ZM39.1905 49.5714V48.5714H38.1905V49.5714H39.1905ZM45.4286 49.5714H46.4286V48.5714H45.4286V49.5714ZM45.4286 55.8095V56.8095H46.4286V55.8095H45.4286ZM39.1905 55.8095H38.1905V56.8095H39.1905V55.8095ZM14.2381 81.7619H20.4762V79.7619H14.2381V81.7619ZM19.4762 80.7619V87H21.4762V80.7619H19.4762ZM20.4762 86H14.2381V88H20.4762V86ZM15.2381 87V80.7619H13.2381V87H15.2381ZM20.4762 75.5238H26.7143V73.5238H20.4762V75.5238ZM25.7143 74.5238V80.7619H27.7143V74.5238H25.7143ZM26.7143 79.7619H20.4762V81.7619H26.7143V79.7619ZM21.4762 80.7619V74.5238H19.4762V80.7619H21.4762ZM26.7143 69.2857H32.9524V67.2857H26.7143V69.2857ZM31.9524 68.2857V74.5238H33.9524V68.2857H31.9524ZM32.9524 73.5238H26.7143V75.5238H32.9524V73.5238ZM27.7143 74.5238V68.2857H25.7143V74.5238H27.7143ZM32.9524 63.0476H39.1905V61.0476H32.9524V63.0476ZM38.1905 62.0476V68.2857H40.1905V62.0476H38.1905ZM39.1905 67.2857H32.9524V69.2857H39.1905V67.2857ZM33.9524 68.2857V62.0476H31.9524V68.2857H33.9524ZM32.9524 56.8095H39.1905V54.8095H32.9524V56.8095ZM38.1905 55.8095V62.0476H40.1905V55.8095H38.1905ZM39.1905 61.0476H32.9524V63.0476H39.1905V61.0476ZM33.9524 62.0476V55.8095H31.9524V62.0476H33.9524ZM26.7143 75.5238H32.9524V73.5238H26.7143V75.5238ZM31.9524 74.5238V80.7619H33.9524V74.5238H31.9524ZM32.9524 79.7619H26.7143V81.7619H32.9524V79.7619ZM27.7143 80.7619V74.5238H25.7143V80.7619H27.7143ZM32.9524 75.5238H39.1905V73.5238H32.9524V75.5238ZM38.1905 74.5238V80.7619H40.1905V74.5238H38.1905ZM39.1905 79.7619H32.9524V81.7619H39.1905V79.7619ZM33.9524 80.7619V74.5238H31.9524V80.7619H33.9524ZM39.1905 75.5238H45.4286V73.5238H39.1905V75.5238ZM44.4286 74.5238V80.7619H46.4286V74.5238H44.4286ZM45.4286 79.7619H39.1905V81.7619H45.4286V79.7619ZM40.1905 80.7619V74.5238H38.1905V80.7619H40.1905ZM45.4286 75.5238H51.6667V73.5238H45.4286V75.5238ZM50.6667 74.5238V80.7619H52.6667V74.5238H50.6667ZM51.6667 79.7619H45.4286V81.7619H51.6667V79.7619ZM46.4286 80.7619V74.5238H44.4286V80.7619H46.4286ZM51.6667 69.2857H57.9048V67.2857H51.6667V69.2857ZM56.9048 68.2857V74.5238H58.9048V68.2857H56.9048ZM57.9048 73.5238H51.6667V75.5238H57.9048V73.5238ZM52.6667 74.5238V68.2857H50.6667V74.5238H52.6667ZM39.1905 81.7619H45.4286V79.7619H39.1905V81.7619ZM44.4286 80.7619V87H46.4286V80.7619H44.4286ZM45.4286 86H39.1905V88H45.4286V86ZM40.1905 87V80.7619H38.1905V87H40.1905ZM32.9524 81.7619H39.1905V79.7619H32.9524V81.7619ZM38.1905 80.7619V87H40.1905V80.7619H38.1905ZM39.1905 86H32.9524V88H39.1905V86ZM33.9524 87V80.7619H31.9524V87H33.9524ZM45.4286 56.8095H51.6667V54.8095H45.4286V56.8095ZM50.6667 55.8095V62.0476H52.6667V55.8095H50.6667ZM51.6667 61.0476H45.4286V63.0476H51.6667V61.0476ZM46.4286 62.0476V55.8095H44.4286V62.0476H46.4286ZM51.6667 56.8095H57.9048V54.8095H51.6667V56.8095ZM56.9048 55.8095V62.0476H58.9048V55.8095H56.9048ZM57.9048 61.0476H51.6667V63.0476H57.9048V61.0476ZM52.6667 62.0476V55.8095H50.6667V62.0476H52.6667ZM64.1429 56.8095H70.381V54.8095H64.1429V56.8095ZM69.381 55.8095V62.0476H71.381V55.8095H69.381ZM70.381 61.0476H64.1429V63.0476H70.381V61.0476ZM65.1429 62.0476V55.8095H63.1429V62.0476H65.1429ZM70.381 56.8095H76.6191V54.8095H70.381V56.8095ZM75.6191 55.8095V62.0476H77.6191V55.8095H75.6191ZM76.6191 61.0476H70.381V63.0476H76.6191V61.0476ZM71.381 62.0476V55.8095H69.381V62.0476H71.381ZM70.381 63.0476H76.6191V61.0476H70.381V63.0476ZM75.6191 62.0476V68.2857H77.6191V62.0476H75.6191ZM76.6191 67.2857H70.381V69.2857H76.6191V67.2857ZM71.381 68.2857V62.0476H69.381V68.2857H71.381ZM70.381 69.2857H76.6191V67.2857H70.381V69.2857ZM75.6191 68.2857V74.5238H77.6191V68.2857H75.6191ZM76.6191 73.5238H70.381V75.5238H76.6191V73.5238ZM71.381 74.5238V68.2857H69.381V74.5238H71.381ZM70.381 75.5238H76.6191V73.5238H70.381V75.5238ZM75.6191 74.5238V80.7619H77.6191V74.5238H75.6191ZM76.6191 79.7619H70.381V81.7619H76.6191V79.7619ZM71.381 80.7619V74.5238H69.381V80.7619H71.381ZM64.1429 75.5238H70.381V73.5238H64.1429V75.5238ZM69.381 74.5238V80.7619H71.381V74.5238H69.381ZM70.381 79.7619H64.1429V81.7619H70.381V79.7619ZM65.1429 80.7619V74.5238H63.1429V80.7619H65.1429ZM64.1429 69.2857H70.381V67.2857H64.1429V69.2857ZM69.381 68.2857V74.5238H71.381V68.2857H69.381ZM70.381 73.5238H64.1429V75.5238H70.381V73.5238ZM65.1429 74.5238V68.2857H63.1429V74.5238H65.1429ZM64.1429 63.0476H70.381V61.0476H64.1429V63.0476ZM69.381 62.0476V68.2857H71.381V62.0476H69.381ZM70.381 67.2857H64.1429V69.2857H70.381V67.2857ZM65.1429 68.2857V62.0476H63.1429V68.2857H65.1429ZM76.6191 75.5238H82.8571V73.5238H76.6191V75.5238ZM81.8571 74.5238V80.7619H83.8571V74.5238H81.8571ZM82.8571 79.7619H76.6191V81.7619H82.8571V79.7619ZM77.6191 80.7619V74.5238H75.6191V80.7619H77.6191ZM82.8571 75.5238H89.0952V73.5238H82.8571V75.5238ZM88.0952 74.5238V80.7619H90.0952V74.5238H88.0952ZM89.0952 79.7619H82.8571V81.7619H89.0952V79.7619ZM83.8571 80.7619V74.5238H81.8571V80.7619H83.8571ZM89.0952 69.2857H95.3333V67.2857H89.0952V69.2857ZM94.3333 68.2857V74.5238H96.3333V68.2857H94.3333ZM95.3333 73.5238H89.0952V75.5238H95.3333V73.5238ZM90.0952 74.5238V68.2857H88.0952V74.5238H90.0952ZM76.6191 81.7619H82.8571V79.7619H76.6191V81.7619ZM81.8571 80.7619V87H83.8571V80.7619H81.8571ZM82.8571 86H76.6191V88H82.8571V86ZM77.6191 87V80.7619H75.6191V87H77.6191ZM70.381 81.7619H76.6191V79.7619H70.381V81.7619ZM75.6191 80.7619V87H77.6191V80.7619H75.6191ZM76.6191 86H70.381V88H76.6191V86ZM71.381 87V80.7619H69.381V87H71.381ZM64.1429 50.5714H70.381V48.5714H64.1429V50.5714ZM69.381 49.5714V55.8095H71.381V49.5714H69.381ZM70.381 54.8095H64.1429V56.8095H70.381V54.8095ZM65.1429 55.8095V49.5714H63.1429V55.8095H65.1429ZM57.9048 50.5714H64.1429V48.5714H57.9048V50.5714ZM63.1429 49.5714V55.8095H65.1429V49.5714H63.1429ZM64.1429 54.8095H57.9048V56.8095H64.1429V54.8095ZM58.9048 55.8095V49.5714H56.9048V55.8095H58.9048ZM57.9048 44.3333H64.1429V42.3333H57.9048V44.3333ZM63.1429 43.3333V49.5714H65.1429V43.3333H63.1429ZM64.1429 48.5714H57.9048V50.5714H64.1429V48.5714ZM58.9048 49.5714V43.3333H56.9048V49.5714H58.9048ZM57.9048 38.0952H64.1429V36.0952H57.9048V38.0952ZM63.1429 37.0952V43.3333H65.1429V37.0952H63.1429ZM64.1429 42.3333H57.9048V44.3333H64.1429V42.3333ZM58.9048 43.3333V37.0952H56.9048V43.3333H58.9048ZM64.1429 38.0952H70.381V36.0952H64.1429V38.0952ZM69.381 37.0952V43.3333H71.381V37.0952H69.381ZM70.381 42.3333H64.1429V44.3333H70.381V42.3333ZM65.1429 43.3333V37.0952H63.1429V43.3333H65.1429ZM64.1429 44.3333H70.381V42.3333H64.1429V44.3333ZM69.381 43.3333V49.5714H71.381V43.3333H69.381ZM70.381 48.5714H64.1429V50.5714H70.381V48.5714ZM65.1429 49.5714V43.3333H63.1429V49.5714H65.1429ZM64.1429 31.8571H70.381V29.8571H64.1429V31.8571ZM69.381 30.8571V37.0952H71.381V30.8571H69.381ZM70.381 36.0952H64.1429V38.0952H70.381V36.0952ZM65.1429 37.0952V30.8571H63.1429V37.0952H65.1429ZM57.9048 31.8571H64.1429V29.8571H57.9048V31.8571ZM63.1429 30.8571V37.0952H65.1429V30.8571H63.1429ZM64.1429 36.0952H57.9048V38.0952H64.1429V36.0952ZM58.9048 37.0952V30.8571H56.9048V37.0952H58.9048ZM57.9048 25.619H64.1429V23.619H57.9048V25.619ZM63.1429 24.619V30.8571H65.1429V24.619H63.1429ZM64.1429 29.8571H57.9048V31.8571H64.1429V29.8571ZM58.9048 30.8571V24.619H56.9048V30.8571H58.9048ZM64.1429 25.619H70.381V23.619H64.1429V25.619ZM69.381 24.619V30.8571H71.381V24.619H69.381ZM70.381 29.8571H64.1429V31.8571H70.381V29.8571ZM65.1429 30.8571V24.619H63.1429V30.8571H65.1429ZM70.381 13.1429H76.6191V11.1429H70.381V13.1429ZM75.6191 12.1429V18.3809H77.6191V12.1429H75.6191ZM76.6191 17.3809H70.381V19.3809H76.6191V17.3809ZM71.381 18.3809V12.1429H69.381V18.3809H71.381ZM76.6191 13.1429H82.8571V11.1429H76.6191V13.1429ZM81.8571 12.1429V18.3809H83.8571V12.1429H81.8571ZM82.8571 17.3809H76.6191V19.3809H82.8571V17.3809ZM77.6191 18.3809V12.1429H75.6191V18.3809H77.6191ZM82.8571 19.3809H89.0952V17.3809H82.8571V19.3809ZM88.0952 18.3809V24.619H90.0952V18.3809H88.0952ZM89.0952 23.619H82.8571V25.619H89.0952V23.619ZM83.8571 24.619V18.3809H81.8571V24.619H83.8571ZM64.1429 19.3809H70.381V17.3809H64.1429V19.3809ZM69.381 18.3809V24.619H71.381V18.3809H69.381ZM70.381 23.619H64.1429V25.619H70.381V23.619ZM65.1429 24.619V18.3809H63.1429V24.619H65.1429ZM57.9048 19.3809H64.1429V17.3809H57.9048V19.3809ZM63.1429 18.3809V24.619H65.1429V18.3809H63.1429ZM64.1429 23.619H57.9048V25.619H64.1429V23.619ZM58.9048 24.619V18.3809H56.9048V24.619H58.9048ZM51.6667 13.1429H57.9048V11.1429H51.6667V13.1429ZM56.9048 12.1429V18.3809H58.9048V12.1429H56.9048ZM57.9048 17.3809H51.6667V19.3809H57.9048V17.3809ZM52.6667 18.3809V12.1429H50.6667V18.3809H52.6667ZM45.4286 13.1429H51.6667V11.1429H45.4286V13.1429ZM50.6667 12.1429V18.3809H52.6667V12.1429H50.6667ZM51.6667 17.3809H45.4286V19.3809H51.6667V17.3809ZM46.4286 18.3809V12.1429H44.4286V18.3809H46.4286ZM39.1905 13.1429H45.4286V11.1429H39.1905V13.1429ZM44.4286 12.1429V18.3809H46.4286V12.1429H44.4286ZM45.4286 17.3809H39.1905V19.3809H45.4286V17.3809ZM40.1905 18.3809V12.1429H38.1905V18.3809H40.1905ZM32.9524 13.1429H39.1905V11.1429H32.9524V13.1429ZM38.1905 12.1429V18.3809H40.1905V12.1429H38.1905ZM39.1905 17.3809H32.9524V19.3809H39.1905V17.3809ZM33.9524 18.3809V12.1429H31.9524V18.3809H33.9524ZM26.7143 13.1429H32.9524V11.1429H26.7143V13.1429ZM31.9524 12.1429V18.3809H33.9524V12.1429H31.9524ZM32.9524 17.3809H26.7143V19.3809H32.9524V17.3809ZM27.7143 18.3809V12.1429H25.7143V18.3809H27.7143ZM20.4762 19.3809H26.7143V17.3809H20.4762V19.3809ZM25.7143 18.3809V24.619H27.7143V18.3809H25.7143ZM26.7143 23.619H20.4762V25.619H26.7143V23.619ZM21.4762 24.619V18.3809H19.4762V24.619H21.4762ZM14.2381 25.619H20.4762V23.619H14.2381V25.619ZM19.4762 24.619V30.8571H21.4762V24.619H19.4762ZM20.4762 29.8571H14.2381V31.8571H20.4762V29.8571ZM15.2381 30.8571V24.619H13.2381V30.8571H15.2381ZM39.1905 19.3809H45.4286V17.3809H39.1905V19.3809ZM44.4286 18.3809V24.619H46.4286V18.3809H44.4286ZM45.4286 23.619H39.1905V25.619H45.4286V23.619ZM40.1905 24.619V18.3809H38.1905V24.619H40.1905ZM45.4286 19.3809H51.6667V17.3809H45.4286V19.3809ZM50.6667 18.3809V24.619H52.6667V18.3809H50.6667ZM51.6667 23.619H45.4286V25.619H51.6667V23.619ZM46.4286 24.619V18.3809H44.4286V24.619H46.4286ZM51.6667 19.3809H57.9048V17.3809H51.6667V19.3809ZM56.9048 18.3809V24.619H58.9048V18.3809H56.9048ZM57.9048 23.619H51.6667V25.619H57.9048V23.619ZM52.6667 24.619V18.3809H50.6667V24.619H52.6667ZM51.6667 25.619H57.9048V23.619H51.6667V25.619ZM56.9048 24.619V30.8571H58.9048V24.619H56.9048ZM57.9048 29.8571H51.6667V31.8571H57.9048V29.8571ZM52.6667 30.8571V24.619H50.6667V30.8571H52.6667ZM45.4286 31.8571H51.6667V29.8571H45.4286V31.8571ZM50.6667 30.8571V37.0952H52.6667V30.8571H50.6667ZM51.6667 36.0952H45.4286V38.0952H51.6667V36.0952ZM46.4286 37.0952V30.8571H44.4286V37.0952H46.4286ZM45.4286 38.0952H51.6667V36.0952H45.4286V38.0952ZM50.6667 37.0952V43.3333H52.6667V37.0952H50.6667ZM51.6667 42.3333H45.4286V44.3333H51.6667V42.3333ZM46.4286 43.3333V37.0952H44.4286V43.3333H46.4286ZM39.1905 38.0952H45.4286V36.0952H39.1905V38.0952ZM44.4286 37.0952V43.3333H46.4286V37.0952H44.4286ZM45.4286 42.3333H39.1905V44.3333H45.4286V42.3333ZM40.1905 43.3333V37.0952H38.1905V43.3333H40.1905ZM39.1905 31.8571H45.4286V29.8571H39.1905V31.8571ZM44.4286 30.8571V37.0952H46.4286V30.8571H44.4286ZM45.4286 36.0952H39.1905V38.0952H45.4286V36.0952ZM40.1905 37.0952V30.8571H38.1905V37.0952H40.1905ZM32.9524 31.8571H39.1905V29.8571H32.9524V31.8571ZM38.1905 30.8571V37.0952H40.1905V30.8571H38.1905ZM39.1905 36.0952H32.9524V38.0952H39.1905V36.0952ZM33.9524 37.0952V30.8571H31.9524V37.0952H33.9524ZM26.7143 38.0952H32.9524V36.0952H26.7143V38.0952ZM31.9524 37.0952V43.3333H33.9524V37.0952H31.9524ZM32.9524 42.3333H26.7143V44.3333H32.9524V42.3333ZM27.7143 43.3333V37.0952H25.7143V43.3333H27.7143ZM39.1905 44.3333H45.4286V42.3333H39.1905V44.3333ZM44.4286 43.3333V49.5714H46.4286V43.3333H44.4286ZM45.4286 48.5714H39.1905V50.5714H45.4286V48.5714ZM40.1905 49.5714V43.3333H38.1905V49.5714H40.1905ZM39.1905 50.5714H45.4286V48.5714H39.1905V50.5714ZM44.4286 49.5714V55.8095H46.4286V49.5714H44.4286ZM45.4286 54.8095H39.1905V56.8095H45.4286V54.8095ZM40.1905 55.8095V49.5714H38.1905V55.8095H40.1905Z" fill="#1F1F1F" mask="url(#path-3-outside-1_3_2)"/>
<defs>
<filter id="filter0_d_3_2" x="0" y="0" width="108" height="106" filterUnits="userSpaceOnUse" color-interpolation-filters="sRGB">
<feFlood flood-opacity="0" result="BackgroundImageFix"/>
<feColorMatrix in="SourceAlpha" type="matrix" values="0 0 0 0 0 0 0 0 0 0 0 0 0 0 0 0 0 0 127 0" result="hardAlpha"/>
<feOffset dy="4"/>
<feGaussianBlur stdDeviation="2"/>
<feComposite in2="hardAlpha" operator="out"/>
<feColorMatrix type="matrix" values="0 0 0 0 0 0 0 0 0 0 0 0 0 0 0 0 0 0 0.25 0"/>
<feBlend mode="normal" in2="BackgroundImageFix" result="effect1_dropShadow_3_2"/>
<feBlend mode="normal" in="SourceGraphic" in2="effect1_dropShadow_3_2" result="shape"/>
</filter>
</defs>
</svg>
